<?xml version="1.0" standalone="no"?>
<!DOCTYPE svg PUBLIC "-//W3C//DTD SVG 20010904//EN"
 "http://www.w3.org/TR/2001/REC-SVG-20010904/DTD/svg10.dtd">
<svg version="1.0" xmlns="http://www.w3.org/2000/svg"
 width="180.000000pt" height="180.000000pt" viewBox="0 0 180.000000 180.000000"
 preserveAspectRatio="xMidYMid meet">
<metadata>
Created by potrace 1.14, written by Peter Selinger 2001-2017
</metadata>
<g transform="translate(0.000000,180.000000) scale(0.100000,-0.100000)"
fill="#000000" stroke="none">
<path d="M85 1600 c-3 -5 -10 -92 -15 -192 -13 -257 -27 -359 -51 -378 -18
-14 -19 -27 -17 -157 l3 -141 77 29 c131 51 165 108 194 328 8 63 26 173 40
244 13 71 24 134 24 138 0 5 -15 9 -32 9 -23 0 -44 10 -68 31 -77 69 -144 107
-155 89z"/>
<path d="M603 1410 c-46 -11 -117 -55 -149 -92 -15 -18 -39 -58 -53 -88 -49
-107 -26 -273 45 -329 13 -10 24 -27 24 -37 0 -15 2 -16 9 -5 5 8 16 11 25 8
12 -5 16 -20 16 -57 0 -27 2 -50 4 -50 3 0 16 4 30 10 20 7 24 6 19 -5 -3 -8
0 -15 6 -15 16 0 13 30 -4 36 -8 4 -15 18 -15 34 0 26 3 28 53 34 68 9 144 44
197 92 38 34 43 36 52 20 23 -40 72 -86 116 -107 70 -34 171 -33 240 3 l52 27
5 -22 c2 -12 6 -33 7 -46 3 -20 15 -27 96 -51 l92 -27 0 46 0 46 17 -33 c23
-48 108 -120 156 -133 30 -8 51 -8 78 0 57 17 64 32 39 81 l-21 42 30 -7 31
-7 0 144 c0 160 -6 179 -66 204 -39 16 -127 19 -154 4 -16 -9 -18 -7 -15 11 3
16 -4 24 -30 35 -54 22 -122 18 -171 -11 -41 -24 -43 -24 -49 -5 -3 10 -20 31
-38 46 -93 78 -232 85 -339 18 l-38 -24 0 25 c0 39 -27 96 -63 133 -50 51
-147 73 -234 52z m507 -170 c12 -8 12 -10 -5 -10 -17 0 -17 -2 -5 -10 8 -5 25
-10 36 -10 12 0 24 -7 28 -15 3 -8 13 -15 21 -15 24 0 7 20 -29 35 -26 11 -28
15 -13 21 12 4 25 0 38 -15 11 -11 26 -21 34 -21 8 0 15 -7 15 -15 0 -8 9 -23
21 -34 15 -13 19 -26 14 -41 -4 -12 -1 -27 6 -36 9 -11 8 -18 -5 -32 -9 -10
-16 -28 -16 -40 0 -11 -8 -23 -19 -27 -10 -3 -21 -15 -24 -25 -3 -13 -14 -20
-29 -20 -13 0 -29 -5 -35 -11 -16 -16 -102 -18 -115 -2 -6 7 -21 13 -34 13
-14 0 -25 8 -29 19 -3 11 -15 23 -26 26 -11 4 -19 15 -19 28 0 19 4 17 30 -14
29 -36 85 -68 97 -55 3 3 1 6 -5 6 -7 0 -12 4 -12 9 0 4 11 6 25 3 20 -3 23
-7 14 -18 -9 -11 -6 -14 15 -14 25 0 38 19 14 21 -9 0 -9 2 1 6 11 5 11 7 0
14 -11 7 -9 9 6 10 l20 0 -20 10 -20 9 20 -3 c11 -2 19 -9 18 -15 -4 -15 23
-16 32 -2 3 6 1 10 -4 10 -6 0 -11 6 -11 14 0 8 8 14 19 13 13 -1 17 -6 13
-17 -5 -13 -4 -13 12 -1 16 14 16 15 -6 27 -13 8 -21 14 -18 14 31 7 40 6 40
-3 0 -7 5 -5 10 3 15 23 12 29 -10 25 -13 -2 -20 2 -20 11 0 8 5 12 10 9 6 -3
10 4 10 17 0 16 -3 19 -9 10 -7 -11 -9 -10 -14 3 -4 9 -3 13 3 10 6 -3 10 -1
10 5 0 24 20 -3 21 -28 2 -23 2 -24 6 -5 5 25 -16 71 -26 57 -7 -12 -26 -12
-37 -1 -5 4 2 10 15 14 22 6 22 6 -6 24 -32 22 -64 25 -60 7 1 -7 -5 -13 -13
-13 -8 0 -14 6 -12 13 1 6 -3 12 -9 12 -8 0 -8 5 1 15 10 12 9 15 -6 15 -16 0
-17 2 -4 10 8 5 20 10 25 10 6 0 17 -5 25 -10z m-70 -9 c0 -9 -41 -23 -48 -16
-2 2 -1 8 3 14 8 13 45 15 45 2z m-372 -34 c6 -6 14 -25 17 -40 6 -24 11 -27
39 -23 17 3 55 8 85 11 l53 6 -7 -28 c-3 -15 -8 -30 -11 -32 -2 -2 -40 0 -85
6 -72 8 -86 7 -117 -10 -28 -15 -36 -16 -43 -5 -17 26 -9 75 16 102 27 29 38
32 53 13z m381 9 c-2 -2 -14 -9 -26 -15 -19 -10 -22 -9 -17 4 4 8 15 15 27 15
11 0 18 -2 16 -4z m-73 -15 c-4 -5 -1 -11 5 -13 7 -2 5 -9 -5 -17 -14 -12 -16
-11 -16 5 0 16 -2 17 -10 4 -8 -12 -10 -11 -10 8 0 16 6 22 21 22 11 0 18 -4
15 -9z m69 -11 c-3 -5 -1 -10 6 -10 7 0 10 -2 7 -5 -8 -9 -38 6 -32 16 3 5 10
9 15 9 6 0 7 -4 4 -10z m100 0 c3 -5 1 -10 -5 -10 -6 0 -8 -6 -4 -12 4 -7 3
-9 -1 -5 -12 10 -15 37 -5 37 5 0 12 -4 15 -10z m-130 -29 c3 -5 1 -12 -5 -16
-5 -3 -10 -1 -10 5 0 6 -4 8 -10 5 -5 -3 -10 -1 -10 4 0 13 27 14 35 2z m-66
-17 c13 8 14 4 5 -18 -5 -13 -9 -14 -20 -5 -11 9 -14 7 -14 -13 0 -21 4 -25
25 -23 17 2 25 -2 25 -11 0 -9 -4 -12 -10 -9 -5 3 -10 1 -10 -6 0 -8 -4 -8
-15 1 -12 10 -15 9 -15 -6 0 -17 -1 -17 -17 -2 -13 14 -14 20 -4 32 7 9 10 24
6 37 -8 23 14 46 26 27 4 -6 12 -7 18 -4z m35 -20 c3 -8 2 -12 -4 -9 -6 3 -10
1 -10 -6 0 -7 -3 -10 -6 -6 -7 6 2 37 10 37 2 0 7 -7 10 -16z m148 -31 c10 -9
18 -22 18 -30 0 -18 -36 -53 -55 -53 -17 0 -55 35 -55 50 0 16 38 50 57 50 9
0 25 -7 35 -17z m-142 -54 c0 8 3 11 7 7 5 -4 0 -14 -10 -21 -17 -12 -16 -14
9 -34 15 -12 25 -24 22 -26 -8 -8 -68 48 -68 63 0 7 5 10 10 7 6 -3 10 0 10 7
0 9 3 9 10 -2 8 -12 10 -12 10 -1z m45 -40 c-8 -12 -35 -11 -35 2 0 5 5 7 10
4 6 -3 10 -1 10 5 0 6 5 8 10 5 6 -4 8 -11 5 -16z m35 -9 c-12 -8 -12 -10 -1
-10 8 0 12 -3 8 -6 -3 -4 -13 -4 -22 0 -20 7 -10 26 13 26 15 0 15 -2 2 -10z"/>
<path d="M1210 1158 c0 -9 5 -20 11 -23 17 -11 20 0 4 21 -13 17 -14 17 -15 2z"/>
<path d="M1240 1115 c-2 -5 -4 -23 -5 -40 -6 -63 -27 -94 -88 -125 -16 -8 -24
-16 -18 -18 19 -6 79 37 101 73 15 25 20 46 17 77 -2 24 -5 39 -7 33z"/>
<path d="M294 953 c-17 -18 -23 -34 -20 -48 3 -11 6 -26 6 -33 0 -7 4 -10 10
-7 5 3 20 -1 32 -9 32 -20 53 6 50 64 -2 20 0 22 9 10 9 -12 10 -12 5 3 -3 10
-6 21 -6 23 0 2 -9 4 -20 4 -11 0 -20 5 -20 10 0 18 -21 10 -46 -17z m45 -25
c-1 -7 -1 -20 0 -28 1 -13 2 -13 12 0 9 13 10 13 6 0 -6 -23 -47 -26 -47 -3 0
11 5 24 12 31 15 15 19 15 17 0z"/>
<path d="M461 824 c0 -11 3 -14 6 -6 3 7 2 16 -1 19 -3 4 -6 -2 -5 -13z"/>
<path d="M241 815 c1 -19 18 -51 18 -35 0 8 -4 22 -9 30 -5 8 -9 11 -9 5z"/>
<path d="M362 800 c-15 -25 -15 -27 1 -33 7 -3 13 6 14 24 3 34 2 35 -15 9z"/>
<path d="M448 778 c-2 -13 -10 -23 -18 -23 -8 0 -20 -6 -25 -13 -8 -10 -17
-10 -44 4 -24 12 -36 13 -44 5 -8 -8 -7 -11 4 -11 12 0 12 -2 -1 -10 -9 -6
-17 -5 -21 2 -4 6 -10 1 -15 -13 l-7 -24 -13 30 c-8 18 -13 23 -14 13 0 -12
-5 -16 -17 -11 -15 5 -16 3 -5 -8 19 -20 14 -39 -10 -39 -13 0 -30 -5 -38 -10
-13 -8 -13 -10 1 -10 9 0 21 -10 27 -22 l11 -23 0 23 c1 12 5 22 10 22 5 0 23
12 40 26 26 21 32 23 37 10 3 -8 2 -21 -2 -28 -4 -7 2 -5 13 5 11 9 29 17 41
17 12 0 27 8 33 19 16 24 48 16 60 -16 16 -42 11 -55 -18 -53 -47 3 -60 0 -35
-10 30 -13 28 -38 -5 -51 -16 -7 -23 -13 -15 -16 19 -7 14 -31 -8 -43 -11 -6
-23 -22 -26 -35 -4 -18 -13 -25 -30 -25 -25 0 -31 -24 -15 -64 7 -19 8 -18 15
5 7 24 7 24 16 3 13 -33 6 -58 -21 -65 -17 -5 -11 -7 24 -8 43 -1 47 1 47 23
0 19 7 25 42 34 23 6 45 9 47 6 3 -3 7 -50 9 -104 4 -93 3 -100 -15 -100 -46
0 -57 -48 -18 -78 65 -52 312 -48 356 4 27 33 -21 82 -85 88 -20 2 -39 6 -43
10 -10 10 -111 7 -118 -4 -16 -26 -23 -3 -23 69 0 48 6 90 14 106 16 31 19 48
4 25 -6 -9 -10 -10 -10 -3 0 6 4 14 9 18 6 3 8 14 6 24 -3 15 7 20 51 30 53
12 62 22 45 50 -12 19 -41 6 -41 -18 0 -16 -10 -20 -52 -26 -40 -6 -54 -4 -62
7 -13 18 -74 29 -80 14 -3 -7 -8 -6 -14 3 -7 9 -3 25 11 50 24 42 56 76 58 61
1 -5 3 -14 4 -20 1 -5 3 -19 4 -30 0 -11 8 -20 16 -20 17 0 20 11 6 25 -11 11
-32 88 -34 125 -2 18 3 25 17 25 11 0 21 6 24 14 4 11 -2 13 -25 8 -28 -5 -29
-4 -25 24 2 16 2 29 -1 29 -3 0 -7 -10 -9 -22z m-60 -283 c0 -24 -8 -31 -21
-19 -6 6 9 44 17 44 2 0 4 -11 4 -25z m82 -2 c0 -16 -109 -115 -119 -108 -22
13 -12 44 16 47 17 2 32 12 39 27 7 13 18 28 26 32 16 11 38 12 38 2z"/>
<path d="M667 789 c45 -13 56 -54 22 -80 -13 -10 -19 -19 -13 -19 17 0 44 34
44 57 0 27 -31 53 -61 52 -20 -1 -19 -2 8 -10z"/>
<path d="M517 708 c-2 -7 3 -22 12 -33 12 -15 12 -17 1 -8 -13 10 -15 0 -15
-73 0 -80 1 -84 23 -84 19 0 22 5 22 43 0 31 5 46 20 57 25 18 26 46 3 54 -14
6 -15 9 -4 16 8 4 11 15 8 24 -8 19 -63 22 -70 4z m50 -80 c-3 -7 -5 -2 -5 12
0 14 2 19 5 13 2 -7 2 -19 0 -25z"/>
<path d="M410 686 c0 -22 3 -27 11 -19 8 8 8 16 0 30 -9 16 -10 14 -11 -11z"/>
<path d="M645 680 c-3 -5 -1 -10 4 -10 6 0 11 5 11 10 0 6 -2 10 -4 10 -3 0
-8 -4 -11 -10z"/>
<path d="M330 651 c0 -6 4 -13 10 -16 6 -3 7 1 4 9 -7 18 -14 21 -14 7z"/>
<path d="M634 625 c0 -23 4 -35 13 -35 7 0 13 -7 13 -15 0 -8 9 -15 19 -15 28
0 35 17 10 25 -18 6 -20 12 -14 41 5 31 4 34 -17 34 -19 0 -23 -5 -24 -35z"/>
<path d="M275 630 c-17 -19 -17 -25 -6 -57 12 -32 12 -38 -3 -48 -9 -7 -16
-20 -16 -29 0 -9 -4 -16 -10 -16 -5 0 -10 -11 -10 -25 0 -31 -20 -75 -34 -75
-6 0 -12 -11 -12 -25 -1 -16 3 -25 13 -25 23 0 -3 -28 -30 -33 -18 -4 -17 -5
6 -6 15 0 27 4 27 10 0 6 10 9 23 7 23 -4 23 -3 23 79 l-1 83 45 0 c32 0 41 3
33 11 -6 6 -9 17 -7 24 3 7 -6 31 -20 54 -29 45 -31 52 -15 49 6 -2 13 7 15
20 5 27 2 27 -21 2z"/>
<path d="M581 578 c0 -13 4 -32 9 -43 7 -15 9 -10 9 23 1 23 -3 42 -9 42 -5 0
-10 -10 -9 -22z"/>
<path d="M734 558 c9 -12 17 -32 17 -43 1 -14 3 -15 6 -4 5 21 -14 69 -27 69
-7 0 -5 -9 4 -22z"/>
<path d="M654 453 c7 -7 87 -5 95 3 2 2 -20 4 -49 4 -29 0 -50 -3 -46 -7z"/>
</g>
</svg>
